<?xml version="1.0" encoding="UTF-8" standalone="no"?>
<!DOCTYPE svg PUBLIC "-//W3C//DTD SVG 1.1//EN" "http://www.w3.org/Graphics/SVG/1.1/DTD/svg11.dtd">
<svg fill="#FFC600" width="100%" height="100%" viewBox="0 0 168 47" version="1.1" xmlns="http://www.w3.org/2000/svg" xmlns:xlink="http://www.w3.org/1999/xlink" xml:space="preserve" xmlns:serif="http://www.serif.com/" style="fill-rule:evenodd;clip-rule:evenodd;stroke-linejoin:round;stroke-miterlimit:2;">
    <g transform="matrix(1,0,0,1,-669.299,-198.782)">
        <g transform="matrix(48,0,0,48,667.139,232.718)">
            <path d="M0.284,0.01C0.406,0.01 0.511,-0.067 0.511,-0.178C0.511,-0.283 0.424,-0.327 0.305,-0.376C0.213,-0.414 0.108,-0.455 0.108,-0.553C0.108,-0.646 0.183,-0.692 0.265,-0.692C0.398,-0.692 0.452,-0.623 0.485,-0.554L0.493,-0.556L0.489,-0.657C0.464,-0.673 0.401,-0.707 0.291,-0.707C0.155,-0.707 0.062,-0.636 0.062,-0.526C0.062,-0.431 0.124,-0.382 0.259,-0.329C0.348,-0.294 0.463,-0.247 0.463,-0.145C0.463,-0.065 0.389,-0.005 0.298,-0.005C0.151,-0.005 0.089,-0.094 0.055,-0.19L0.045,-0.189L0.052,-0.061C0.094,-0.031 0.177,0.01 0.284,0.01Z" style="fill:white;fill-rule:nonzero;"/>
        </g>
        <g transform="matrix(48,0,0,48,692.483,232.718)">
            <path d="M0.298,0.01C0.416,0.01 0.554,-0.077 0.554,-0.248C0.554,-0.427 0.422,-0.507 0.298,-0.507C0.161,-0.507 0.041,-0.4 0.041,-0.249C0.041,-0.071 0.174,0.01 0.298,0.01ZM0.093,-0.287C0.093,-0.403 0.158,-0.49 0.276,-0.49C0.41,-0.49 0.505,-0.339 0.505,-0.208C0.505,-0.096 0.439,-0.009 0.323,-0.009C0.189,-0.009 0.093,-0.15 0.093,-0.287Z" style="fill:white;fill-rule:nonzero;"/>
        </g>
        <g transform="matrix(48,0,0,48,718.355,232.718)">
            <path d="M0.306,0.009C0.475,0.007 0.555,-0.134 0.555,-0.259C0.555,-0.419 0.458,-0.507 0.351,-0.507C0.264,-0.507 0.193,-0.462 0.137,-0.417L0.137,-0.501L0.13,-0.507L0.045,-0.47L0.045,-0.461C0.075,-0.448 0.085,-0.439 0.085,-0.357L0.085,0.143C0.085,0.235 0.073,0.252 0.045,0.259L0.045,0.27L0.177,0.27L0.177,0.259C0.149,0.252 0.137,0.235 0.137,0.143L0.137,-0.048C0.175,-0.019 0.239,0.01 0.306,0.009ZM0.137,-0.162L0.137,-0.404C0.182,-0.441 0.241,-0.481 0.316,-0.481C0.448,-0.481 0.507,-0.356 0.507,-0.222C0.507,-0.079 0.432,-0.009 0.33,-0.009C0.222,-0.009 0.137,-0.095 0.137,-0.162Z" style="fill:white;fill-rule:nonzero;"/>
        </g>
        <g transform="matrix(48,0,0,48,745.235,232.718)">
            <path d="M0.037,-0L0.169,-0L0.169,-0.011C0.141,-0.018 0.129,-0.035 0.129,-0.127L0.129,-0.326C0.133,-0.372 0.17,-0.439 0.204,-0.46C0.257,-0.446 0.299,-0.435 0.323,-0.435C0.35,-0.435 0.372,-0.462 0.372,-0.483C0.372,-0.495 0.352,-0.507 0.305,-0.507C0.258,-0.507 0.225,-0.493 0.2,-0.474C0.174,-0.454 0.145,-0.416 0.129,-0.374L0.129,-0.501L0.122,-0.507L0.037,-0.47L0.037,-0.461C0.067,-0.448 0.077,-0.439 0.077,-0.357L0.077,-0.127C0.077,-0.035 0.065,-0.018 0.037,-0.011L0.037,-0Z" style="fill:white;fill-rule:nonzero;"/>
        </g>
        <g transform="matrix(48,0,0,48,761.363,232.718)">
            <path d="M0.429,-0L0.501,-0L0.501,-0.011C0.473,-0.018 0.461,-0.035 0.461,-0.127L0.461,-0.335C0.461,-0.438 0.407,-0.507 0.286,-0.507C0.203,-0.507 0.134,-0.468 0.076,-0.394L0.085,-0.387C0.133,-0.449 0.195,-0.481 0.259,-0.481C0.355,-0.481 0.402,-0.43 0.408,-0.333L0.26,-0.294C0.145,-0.264 0.04,-0.226 0.04,-0.121C0.04,-0.033 0.11,0.01 0.185,0.01C0.279,0.01 0.375,-0.081 0.409,-0.211L0.409,-0.02C0.409,-0.007 0.416,-0 0.429,-0ZM0.095,-0.141C0.094,-0.222 0.159,-0.255 0.264,-0.283L0.409,-0.321L0.409,-0.286C0.408,-0.166 0.325,-0.034 0.208,-0.034C0.139,-0.034 0.096,-0.077 0.095,-0.141Z" style="fill:white;fill-rule:nonzero;"/>
        </g>
        <g transform="matrix(48,0,0,48,784.835,232.718)">
            <path d="M0.037,-0L0.169,-0L0.169,-0.011C0.141,-0.018 0.129,-0.035 0.129,-0.127L0.129,-0.399C0.177,-0.44 0.242,-0.481 0.305,-0.481C0.409,-0.481 0.458,-0.421 0.458,-0.302L0.458,-0.127C0.458,-0.035 0.446,-0.018 0.418,-0.011L0.418,-0L0.55,-0L0.55,-0.011C0.522,-0.018 0.51,-0.035 0.51,-0.127L0.51,-0.323C0.51,-0.441 0.452,-0.507 0.347,-0.507C0.27,-0.507 0.19,-0.464 0.129,-0.414L0.129,-0.501L0.122,-0.507L0.037,-0.47L0.037,-0.461C0.067,-0.448 0.077,-0.439 0.077,-0.357L0.077,-0.127C0.077,-0.035 0.065,-0.018 0.037,-0.011L0.037,-0Z" style="fill:white;fill-rule:nonzero;"/>
        </g>
        <g transform="matrix(48,0,0,48,810.659,232.718)">
            <path d="M0.298,0.01C0.416,0.01 0.554,-0.077 0.554,-0.248C0.554,-0.427 0.422,-0.507 0.298,-0.507C0.161,-0.507 0.041,-0.4 0.041,-0.249C0.041,-0.071 0.174,0.01 0.298,0.01ZM0.093,-0.287C0.093,-0.403 0.158,-0.49 0.276,-0.49C0.41,-0.49 0.505,-0.339 0.505,-0.208C0.505,-0.096 0.439,-0.009 0.323,-0.009C0.189,-0.009 0.093,-0.15 0.093,-0.287Z" style="fill:white;fill-rule:nonzero;"/>
        </g>
    </g>
</svg>
