<?xml version="1.0" encoding="UTF-8" standalone="no"?>
<!DOCTYPE svg PUBLIC "-//W3C//DTD SVG 1.1//EN" "http://www.w3.org/Graphics/SVG/1.1/DTD/svg11.dtd">
<svg fill="currentColor" width="100%" height="100%" viewBox="0 0 451 69" version="1.1" xmlns="http://www.w3.org/2000/svg" xmlns:xlink="http://www.w3.org/1999/xlink" xml:space="preserve" xmlns:serif="http://www.serif.com/" style="fill-rule:evenodd;clip-rule:evenodd;stroke-linejoin:round;stroke-miterlimit:2;">
    <g transform="matrix(1,0,0,1,-634.926,-11.1076)">
        <path d="M642.03,23.108L664.398,79.94L666.126,79.94L687.918,23.204C691.086,14.948 693.39,13.508 695.79,12.836L695.79,11.78L685.326,11.78L685.326,12.836C688.686,13.508 688.782,17.06 686.478,23.204L667.278,73.316L647.598,23.108C644.43,14.948 644.334,13.508 647.022,12.836L647.022,11.78L634.926,11.78L634.926,12.836C636.846,13.508 638.862,14.948 642.03,23.108Z" style="fill:white;fill-rule:nonzero;"/>
        <path d="M679.47,78.98L689.934,78.98L689.934,77.924C686.574,77.252 686.574,73.7 689.07,67.652L694.83,53.348L723.438,53.348L729.39,67.748C732.75,75.908 732.846,77.252 730.158,77.924L730.158,78.98L742.254,78.98L742.254,77.924C740.334,77.252 738.318,75.908 734.958,67.748L711.63,11.108L706.734,13.22L707.31,14.468C707.982,15.812 708.078,16.868 707.502,18.308L687.534,67.652C684.174,75.908 681.87,77.252 679.47,77.924L679.47,78.98ZM695.406,52.004L708.942,18.308L722.862,52.004L695.406,52.004Z" style="fill:white;fill-rule:nonzero;"/>
        <path d="M747.15,78.98L790.638,78.98L791.214,69.476L790.35,69.284C787.47,75.428 784.206,77.732 775.566,77.732L760.206,77.732C757.71,77.732 756.366,76.388 756.366,73.892L756.366,23.972C756.366,15.14 757.518,13.508 760.206,12.836L760.206,11.78L747.15,11.78L747.15,12.836C749.838,13.508 750.99,15.14 750.99,23.972L750.99,66.788C750.99,75.62 749.838,77.252 747.15,77.924L747.15,78.98Z" style="fill:white;fill-rule:nonzero;"/>
        <path d="M837.966,79.94C849.678,79.94 859.758,72.548 859.758,61.892C859.758,51.812 851.406,47.588 839.982,42.884C831.15,39.236 821.07,35.3 821.07,25.892C821.07,16.964 828.27,12.548 836.142,12.548C848.91,12.548 854.094,19.172 857.262,25.796L858.03,25.604L857.646,15.908C855.246,14.372 849.198,11.108 838.638,11.108C825.582,11.108 816.654,17.924 816.654,28.484C816.654,37.604 822.606,42.308 835.566,47.396C844.11,50.756 855.15,55.268 855.15,65.06C855.15,72.74 848.046,78.5 839.31,78.5C825.198,78.5 819.246,69.956 815.982,60.74L815.022,60.836L815.694,73.124C819.726,76.004 827.694,79.94 837.966,79.94Z" style="fill:white;fill-rule:nonzero;"/>
        <path d="M868.59,78.98L881.646,78.98L881.646,77.924C878.958,77.252 877.806,75.62 877.806,66.788L877.806,23.972C877.806,15.14 878.958,13.508 881.646,12.836L881.646,11.78L868.59,11.78L868.59,12.836C871.278,13.508 872.43,15.14 872.43,23.972L872.43,66.788C872.43,75.62 871.278,77.252 868.59,77.924L868.59,78.98Z" style="fill:white;fill-rule:nonzero;"/>
        <path d="M893.166,78.98L911.406,78.98C934.35,78.98 941.838,67.652 941.646,57.38C941.55,48.164 935.886,39.908 920.43,38.852C930.126,36.932 934.446,30.98 934.446,24.452C934.446,16.676 928.014,11.78 914.286,11.78L893.166,11.78L893.166,12.836C895.854,13.508 897.006,15.14 897.006,23.972L897.006,66.788C897.006,75.62 895.854,77.252 893.166,77.924L893.166,78.98ZM902.382,69.284L902.382,40.1L915.342,40.1C929.838,40.1 935.694,48.068 935.694,58.628C935.694,69.764 929.934,77.636 912.27,77.636L907.374,77.636C903.246,77.636 902.382,76.196 902.382,69.284ZM902.382,38.852L902.382,13.028L913.326,13.028C923.406,13.028 928.494,18.116 928.494,25.7C928.494,32.996 923.982,38.852 911.79,38.852L902.382,38.852Z" style="fill:white;fill-rule:nonzero;"/>
        <path d="M949.902,78.98L962.958,78.98L962.958,77.924C960.27,77.252 959.118,75.62 959.118,66.788L959.118,23.972C959.118,15.14 960.27,13.508 962.958,12.836L962.958,11.78L949.902,11.78L949.902,12.836C952.59,13.508 953.742,15.14 953.742,23.972L953.742,66.788C953.742,75.62 952.59,77.252 949.902,77.924L949.902,78.98Z" style="fill:white;fill-rule:nonzero;"/>
        <path d="M975.438,78.98L1018.93,78.98L1019.5,69.476L1018.64,69.284C1015.76,75.428 1012.49,77.732 1003.85,77.732L988.494,77.732C985.998,77.732 984.654,76.388 984.654,73.892L984.654,23.972C984.654,15.14 985.806,13.508 988.494,12.836L988.494,11.78L975.438,11.78L975.438,12.836C978.126,13.508 979.278,15.14 979.278,23.972L979.278,66.788C979.278,75.62 978.126,77.252 975.438,77.924L975.438,78.98Z" style="fill:white;fill-rule:nonzero;"/>
        <path d="M1022.48,78.98L1032.94,78.98L1032.94,77.924C1029.58,77.252 1029.58,73.7 1032.08,67.652L1037.84,53.348L1066.45,53.348L1072.4,67.748C1075.76,75.908 1075.85,77.252 1073.17,77.924L1073.17,78.98L1085.26,78.98L1085.26,77.924C1083.34,77.252 1081.33,75.908 1077.97,67.748L1054.64,11.108L1049.74,13.22L1050.32,14.468C1050.99,15.812 1051.09,16.868 1050.51,18.308L1030.54,67.652C1027.18,75.908 1024.88,77.252 1022.48,77.924L1022.48,78.98ZM1038.41,52.004L1051.95,18.308L1065.87,52.004L1038.41,52.004Z" style="fill:white;fill-rule:nonzero;"/>
    </g>
</svg>
